G75*
%MOIN*%
%OFA0B0*%
%FSLAX25Y25*%
%IPPOS*%
%LPD*%
%AMOC8*
5,1,8,0,0,1.08239X$1,22.5*
%
%ADD10C,0.07800*%
%ADD11OC8,0.09400*%
%ADD12C,0.10800*%
%ADD13OC8,0.07800*%
%ADD14C,0.09400*%
%ADD15C,0.15800*%
%ADD16OC8,0.07400*%
%ADD17OC8,0.06400*%
D10*
X0082500Y0156000D02*
X0089500Y0156000D01*
X0089500Y0166000D02*
X0082500Y0166000D01*
X0082500Y0176000D02*
X0089500Y0176000D01*
X0089500Y0186000D02*
X0082500Y0186000D01*
X0082500Y0196000D02*
X0089500Y0196000D01*
X0089500Y0206000D02*
X0082500Y0206000D01*
X0082500Y0216000D02*
X0089500Y0216000D01*
X0089500Y0226000D02*
X0082500Y0226000D01*
X0082500Y0236000D02*
X0089500Y0236000D01*
X0112500Y0236000D02*
X0119500Y0236000D01*
X0119500Y0226000D02*
X0112500Y0226000D01*
X0112500Y0216000D02*
X0119500Y0216000D01*
X0119500Y0206000D02*
X0112500Y0206000D01*
X0112500Y0196000D02*
X0119500Y0196000D01*
X0119500Y0186000D02*
X0112500Y0186000D01*
X0112500Y0176000D02*
X0119500Y0176000D01*
X0119500Y0166000D02*
X0112500Y0166000D01*
X0112500Y0156000D02*
X0119500Y0156000D01*
X0147500Y0081000D02*
X0154500Y0081000D01*
X0154500Y0071000D02*
X0147500Y0071000D01*
X0147500Y0061000D02*
X0154500Y0061000D01*
X0154500Y0051000D02*
X0147500Y0051000D01*
X0147500Y0041000D02*
X0154500Y0041000D01*
X0154500Y0031000D02*
X0147500Y0031000D01*
X0147500Y0021000D02*
X0154500Y0021000D01*
X0134500Y0041000D02*
X0127500Y0041000D01*
X0127500Y0051000D02*
X0134500Y0051000D01*
X0134500Y0061000D02*
X0127500Y0061000D01*
X0177500Y0061000D02*
X0184500Y0061000D01*
X0184500Y0051000D02*
X0177500Y0051000D01*
X0177500Y0041000D02*
X0184500Y0041000D01*
X0184500Y0031000D02*
X0177500Y0031000D01*
X0177500Y0021000D02*
X0184500Y0021000D01*
X0184500Y0071000D02*
X0177500Y0071000D01*
X0177500Y0081000D02*
X0184500Y0081000D01*
D11*
X0191000Y0096000D03*
X0161000Y0101000D03*
X0151000Y0096000D03*
X0133500Y0096000D03*
X0133500Y0083500D03*
X0121000Y0101000D03*
X0113500Y0083500D03*
X0098500Y0091000D03*
X0081000Y0101000D03*
X0071000Y0101000D03*
X0056000Y0108500D03*
X0041000Y0101000D03*
X0041000Y0121000D03*
X0021000Y0138500D03*
X0033500Y0156000D03*
X0033500Y0176000D03*
X0021000Y0178500D03*
X0011000Y0206000D03*
X0031000Y0206000D03*
X0041000Y0236000D03*
X0041000Y0251000D03*
X0026000Y0251000D03*
X0011000Y0251000D03*
X0056000Y0251000D03*
X0071000Y0251000D03*
X0091000Y0251000D03*
X0103500Y0251000D03*
X0126000Y0251000D03*
X0141000Y0251000D03*
X0156000Y0251000D03*
X0171000Y0251000D03*
X0191000Y0251000D03*
X0151000Y0226000D03*
X0151000Y0206000D03*
X0146000Y0186000D03*
X0186000Y0186000D03*
X0191000Y0151000D03*
X0191000Y0136000D03*
X0161000Y0121000D03*
X0151000Y0136000D03*
X0133500Y0136000D03*
X0121000Y0121000D03*
X0098500Y0131000D03*
X0081000Y0121000D03*
X0056000Y0148500D03*
X0021000Y0101000D03*
X0011000Y0071000D03*
D12*
X0046000Y0176000D02*
X0056000Y0176000D01*
X0056000Y0196000D02*
X0046000Y0196000D01*
D13*
X0031000Y0226000D03*
X0021000Y0226000D03*
X0011000Y0226000D03*
D14*
X0166000Y0226000D03*
X0176000Y0216000D03*
X0186000Y0226000D03*
D15*
X0028776Y0046000D02*
X0013776Y0046000D01*
X0092516Y0046000D02*
X0107516Y0046000D01*
D16*
X0063500Y0093500D03*
X0089750Y0109750D03*
X0113500Y0109750D03*
X0142250Y0113500D03*
X0142250Y0151000D03*
X0071000Y0196000D03*
X0063500Y0163500D03*
X0046000Y0158500D03*
X0046000Y0137250D03*
D17*
X0091000Y0101000D03*
X0113500Y0101000D03*
M02*
