G75*
%MOIN*%
%OFA0B0*%
%FSLAX25Y25*%
%IPPOS*%
%LPD*%
%AMOC8*
5,1,8,0,0,1.08239X$1,22.5*
%
%ADD10C,0.07000*%
%ADD11OC8,0.12000*%
%ADD12C,0.10000*%
%ADD13C,0.05000*%
%ADD14OC8,0.10000*%
D10*
X0122500Y0056000D02*
X0129500Y0056000D01*
X0129500Y0066000D02*
X0122500Y0066000D01*
X0122500Y0076000D02*
X0129500Y0076000D01*
X0129500Y0086000D02*
X0122500Y0086000D01*
X0122500Y0096000D02*
X0129500Y0096000D01*
X0152500Y0096000D02*
X0159500Y0096000D01*
X0159500Y0086000D02*
X0152500Y0086000D01*
X0152500Y0076000D02*
X0159500Y0076000D01*
X0159500Y0066000D02*
X0152500Y0066000D01*
X0152500Y0056000D02*
X0159500Y0056000D01*
X0104500Y0096000D02*
X0097500Y0096000D01*
X0097500Y0106000D02*
X0104500Y0106000D01*
X0122500Y0106000D02*
X0129500Y0106000D01*
X0129500Y0116000D02*
X0122500Y0116000D01*
X0122500Y0126000D02*
X0129500Y0126000D01*
X0129500Y0136000D02*
X0122500Y0136000D01*
X0152500Y0136000D02*
X0159500Y0136000D01*
X0159500Y0126000D02*
X0152500Y0126000D01*
X0152500Y0116000D02*
X0159500Y0116000D01*
X0159500Y0106000D02*
X0152500Y0106000D01*
X0301000Y0117500D02*
X0301000Y0124500D01*
X0311000Y0124500D02*
X0311000Y0117500D01*
X0347500Y0106000D02*
X0354500Y0106000D01*
X0354500Y0096000D02*
X0347500Y0096000D01*
X0347500Y0086000D02*
X0354500Y0086000D01*
X0392500Y0056000D02*
X0399500Y0056000D01*
X0399500Y0046000D02*
X0392500Y0046000D01*
X0392500Y0036000D02*
X0399500Y0036000D01*
X0311000Y0137500D02*
X0311000Y0144500D01*
X0301000Y0144500D02*
X0301000Y0137500D01*
D11*
X0256000Y0156000D03*
X0216000Y0156000D03*
X0196000Y0171000D03*
X0166000Y0171000D03*
X0156000Y0156000D03*
X0126000Y0171000D03*
X0101000Y0156000D03*
X0071000Y0156000D03*
X0051000Y0156000D03*
X0011000Y0156000D03*
X0011000Y0136000D03*
X0051000Y0136000D03*
X0071000Y0136000D03*
X0071000Y0116000D03*
X0051000Y0116000D03*
X0051000Y0098500D03*
X0071000Y0098500D03*
X0011000Y0098500D03*
X0011000Y0116000D03*
X0011000Y0071000D03*
X0051000Y0071000D03*
X0071000Y0071000D03*
X0071000Y0051000D03*
X0051000Y0051000D03*
X0011000Y0051000D03*
X0191000Y0046000D03*
X0211000Y0046000D03*
X0211000Y0031000D03*
X0191000Y0031000D03*
X0251000Y0031000D03*
X0251000Y0046000D03*
X0251000Y0066000D03*
X0286000Y0066000D03*
X0326000Y0066000D03*
X0286000Y0086000D03*
X0251000Y0083500D03*
X0251000Y0101000D03*
X0211000Y0101000D03*
X0191000Y0101000D03*
X0191000Y0083500D03*
X0211000Y0083500D03*
X0211000Y0066000D03*
X0191000Y0066000D03*
X0326000Y0101000D03*
X0331000Y0171000D03*
D12*
X0281000Y0141000D02*
X0271000Y0141000D01*
X0271000Y0121000D02*
X0281000Y0121000D01*
D13*
X0156000Y0156000D02*
X0101000Y0156000D01*
X0111000Y0086000D02*
X0111000Y0011000D01*
D14*
X0111000Y0011000D03*
X0111000Y0086000D03*
M02*
